<svg xmlns="http://www.w3.org/2000/svg" xmlns:xlink="http://www.w3.org/1999/xlink" width="500" zoomAndPan="magnify" viewBox="0 0 375 374.999991" height="500" preserveAspectRatio="xMidYMid meet" version="1.2"><defs><clipPath id="10a4316e45"><path d="M 79.453125 37.5 L 295.453125 37.5 L 295.453125 250 L 79.453125 250 Z M 79.453125 37.5 "/></clipPath></defs><g id="734c73912a"><g clip-rule="nonzero" clip-path="url(#10a4316e45)"><path style=" stroke:none;fill-rule:nonzero;fill:#ffffff;fill-opacity:1;" d="M 186.679688 37.9375 C 127.96875 38.34375 80.035156 86.238281 79.59375 144.953125 C 79.476562 159.96875 82.441406 174.28125 87.875 187.300781 C 95.59375 172.0625 101.414062 158.570312 105.515625 150.050781 C 107.574219 145.773438 110.113281 141.808594 113.046875 138.21875 C 107.398438 128.0625 102.515625 121.25 102.515625 121.25 C 113.40625 118.53125 121.953125 120.476562 128.320312 123.820312 C 122.683594 113.175781 120.488281 102.246094 120.488281 102.246094 C 141.976562 101.339844 155.433594 112.964844 159.414062 116.972656 C 167.265625 117.285156 175.429688 119.308594 183.316406 124.117188 C 226.246094 150.292969 274.835938 150.558594 274.835938 150.558594 C 275.03125 152.796875 273.53125 155.703125 271.269531 158.726562 C 263.671875 168.875 252.003906 175.175781 239.394531 176.457031 C 223.308594 178.089844 198.898438 181.703125 190.648438 189.011719 C 181.847656 196.804688 177.433594 205.550781 175.675781 214.203125 C 172.085938 194.878906 173.578125 179.613281 173.578125 179.613281 C 167.308594 190.007812 164.847656 200.496094 164.8125 210.53125 C 164.738281 232.148438 181.917969 246.554688 202.273438 249.351562 C 227.035156 252.753906 248.648438 238.789062 264.855469 221.234375 C 268.914062 216.835938 272.664062 212.152344 276.078125 207.238281 C 288.558594 189.265625 295.285156 167.660156 295.285156 145.78125 C 295.285156 85.96875 246.589844 37.527344 186.679688 37.9375 "/></g><g style="fill:#f6e7d8;fill-opacity:1;"><g transform="translate(54.024171, 328.302445)"><path style="stroke:none" d="M 15.265625 0.578125 C 12.566406 0.578125 9.957031 0.210938 7.4375 -0.515625 C 4.914062 -1.242188 2.890625 -2.191406 1.359375 -3.359375 L 4.046875 -9.3125 C 5.503906 -8.238281 7.238281 -7.375 9.25 -6.71875 C 11.269531 -6.070312 13.289062 -5.75 15.3125 -5.75 C 17.550781 -5.75 19.207031 -6.082031 20.28125 -6.75 C 21.351562 -7.414062 21.890625 -8.300781 21.890625 -9.40625 C 21.890625 -10.21875 21.570312 -10.890625 20.9375 -11.421875 C 20.3125 -11.960938 19.5 -12.394531 18.5 -12.71875 C 17.507812 -13.050781 16.171875 -13.410156 14.484375 -13.796875 C 11.878906 -14.421875 9.75 -15.039062 8.09375 -15.65625 C 6.4375 -16.269531 5.015625 -17.257812 3.828125 -18.625 C 2.640625 -19.988281 2.046875 -21.8125 2.046875 -24.09375 C 2.046875 -26.070312 2.582031 -27.863281 3.65625 -29.46875 C 4.726562 -31.082031 6.34375 -32.359375 8.5 -33.296875 C 10.664062 -34.242188 13.3125 -34.71875 16.4375 -34.71875 C 18.613281 -34.71875 20.738281 -34.457031 22.8125 -33.9375 C 24.894531 -33.414062 26.71875 -32.671875 28.28125 -31.703125 L 25.84375 -25.703125 C 22.6875 -27.484375 19.535156 -28.375 16.390625 -28.375 C 14.171875 -28.375 12.535156 -28.015625 11.484375 -27.296875 C 10.429688 -26.585938 9.90625 -25.648438 9.90625 -24.484375 C 9.90625 -23.304688 10.515625 -22.429688 11.734375 -21.859375 C 12.953125 -21.296875 14.8125 -20.738281 17.3125 -20.1875 C 19.914062 -19.570312 22.046875 -18.953125 23.703125 -18.328125 C 25.359375 -17.710938 26.78125 -16.738281 27.96875 -15.40625 C 29.15625 -14.070312 29.75 -12.269531 29.75 -10 C 29.75 -8.050781 29.203125 -6.269531 28.109375 -4.65625 C 27.023438 -3.050781 25.390625 -1.773438 23.203125 -0.828125 C 21.023438 0.109375 18.378906 0.578125 15.265625 0.578125 Z M 15.265625 0.578125 "/></g></g><g style="fill:#f6e7d8;fill-opacity:1;"><g transform="translate(94.775671, 328.302445)"><path style="stroke:none" d="M 35.359375 -34.140625 L 35.359375 0 L 27.453125 0 L 27.453125 -14 L 11.953125 -14 L 11.953125 0 L 4.046875 0 L 4.046875 -34.140625 L 11.953125 -34.140625 L 11.953125 -20.671875 L 27.453125 -20.671875 L 27.453125 -34.140625 Z M 35.359375 -34.140625 "/></g></g><g style="fill:#f6e7d8;fill-opacity:1;"><g transform="translate(143.812679, 328.302445)"><path style="stroke:none" d="M 26.53125 -7.3125 L 10.671875 -7.3125 L 7.65625 0 L -0.4375 0 L 14.78125 -34.140625 L 22.578125 -34.140625 L 37.84375 0 L 29.546875 0 Z M 24.046875 -13.3125 L 18.625 -26.375 L 13.21875 -13.3125 Z M 24.046875 -13.3125 "/></g></g><g style="fill:#f6e7d8;fill-opacity:1;"><g transform="translate(190.802669, 328.302445)"><path style="stroke:none" d="M 4.046875 -34.140625 L 19.5625 -34.140625 C 23.257812 -34.140625 26.53125 -33.429688 29.375 -32.015625 C 32.21875 -30.597656 34.425781 -28.601562 36 -26.03125 C 37.582031 -23.46875 38.375 -20.476562 38.375 -17.0625 C 38.375 -13.65625 37.582031 -10.664062 36 -8.09375 C 34.425781 -5.53125 32.21875 -3.539062 29.375 -2.125 C 26.53125 -0.707031 23.257812 0 19.5625 0 L 4.046875 0 Z M 19.171875 -6.484375 C 22.578125 -6.484375 25.296875 -7.429688 27.328125 -9.328125 C 29.359375 -11.234375 30.375 -13.8125 30.375 -17.0625 C 30.375 -20.3125 29.359375 -22.890625 27.328125 -24.796875 C 25.296875 -26.703125 22.578125 -27.65625 19.171875 -27.65625 L 11.953125 -27.65625 L 11.953125 -6.484375 Z M 19.171875 -6.484375 "/></g></g><g style="fill:#f6e7d8;fill-opacity:1;"><g transform="translate(240.716961, 328.302445)"><path style="stroke:none" d="M 4.046875 -34.140625 L 11.953125 -34.140625 L 11.953125 -6.4375 L 29.0625 -6.4375 L 29.0625 0 L 4.046875 0 Z M 4.046875 -34.140625 "/></g></g><g style="fill:#f6e7d8;fill-opacity:1;"><g transform="translate(279.811379, 328.302445)"><path style="stroke:none" d="M 20.578125 0.578125 C 17.035156 0.578125 13.84375 -0.179688 11 -1.703125 C 8.15625 -3.234375 5.925781 -5.335938 4.3125 -8.015625 C 2.707031 -10.703125 1.90625 -13.71875 1.90625 -17.0625 C 1.90625 -20.414062 2.707031 -23.429688 4.3125 -26.109375 C 5.925781 -28.796875 8.15625 -30.898438 11 -32.421875 C 13.84375 -33.953125 17.035156 -34.71875 20.578125 -34.71875 C 24.117188 -34.71875 27.300781 -33.953125 30.125 -32.421875 C 32.957031 -30.898438 35.1875 -28.796875 36.8125 -26.109375 C 38.4375 -23.429688 39.25 -20.414062 39.25 -17.0625 C 39.25 -13.71875 38.4375 -10.703125 36.8125 -8.015625 C 35.1875 -5.335938 32.957031 -3.234375 30.125 -1.703125 C 27.300781 -0.179688 24.117188 0.578125 20.578125 0.578125 Z M 20.578125 -6.140625 C 22.597656 -6.140625 24.421875 -6.601562 26.046875 -7.53125 C 27.671875 -8.457031 28.945312 -9.75 29.875 -11.40625 C 30.800781 -13.0625 31.265625 -14.945312 31.265625 -17.0625 C 31.265625 -19.175781 30.800781 -21.0625 29.875 -22.71875 C 28.945312 -24.382812 27.671875 -25.675781 26.046875 -26.59375 C 24.421875 -27.519531 22.597656 -27.984375 20.578125 -27.984375 C 18.566406 -27.984375 16.742188 -27.519531 15.109375 -26.59375 C 13.484375 -25.675781 12.207031 -24.382812 11.28125 -22.71875 C 10.363281 -21.0625 9.90625 -19.175781 9.90625 -17.0625 C 9.90625 -14.945312 10.363281 -13.0625 11.28125 -11.40625 C 12.207031 -9.75 13.484375 -8.457031 15.109375 -7.53125 C 16.742188 -6.601562 18.566406 -6.140625 20.578125 -6.140625 Z M 20.578125 -6.140625 "/></g></g></g></svg>